<svg xmlns="http://www.w3.org/2000/svg" viewBox="0 0 95.57 91.49"><defs><style>.cls-1{fill:#9d83ae;}.cls-2{fill:#fff;}.cls-3{fill:none;stroke:#fff;stroke-miterlimit:10;}</style></defs><g id="Layer_3" data-name="Layer 3"><path class="cls-1" d="M302.82,379.43l3,0L306,394c.07,5.79-2.95,7.6-7,7.64a10.24,10.24,0,0,1-3.22-.49l.43-2.3a7.55,7.55,0,0,0,2.52.4c2.7,0,4.28-1.18,4.23-5.45Z" transform="translate(-258.24 -350.74)"/><path class="cls-1" d="M303.19,389.62a28.08,28.08,0,0,1,5.14-.44c2.81,0,4.62.47,6,1.55a4.47,4.47,0,0,1,1.81,3.78,5.11,5.11,0,0,1-3.68,4.7v.06a5.55,5.55,0,0,1,4.49,5.37,5.71,5.71,0,0,1-1.84,4.28c-1.52,1.37-4,2-7.54,2a32.92,32.92,0,0,1-4.36-.25Zm2.81,8.76h2.55c3,0,4.72-1.52,4.72-3.58,0-2.51-1.93-3.49-4.78-3.49a12,12,0,0,0-2.49.19Zm0,10.26a16.2,16.2,0,0,0,2.36.12c2.91,0,5.59-1,5.59-4.16,0-2.91-2.55-4.12-5.62-4.12H306Z" transform="translate(-258.24 -350.74)"/><path class="cls-1" d="M263.83,395.29c0-1.39-.53-1.76-1.47-1.77a2.92,2.92,0,0,0-.88.13l-.15-.75a4,4,0,0,1,1.12-.16,2.16,2.16,0,0,1,2.43,2.48l-.05,4.73h-1.06Z" transform="translate(-258.24 -350.74)"/><path class="cls-1" d="M263.9,389.82a13.06,13.06,0,0,1,1.53-.08,4.11,4.11,0,0,1,2.63.64,1.78,1.78,0,0,1-.93,3.13v0a1.69,1.69,0,0,1,1.29,1.53,1.42,1.42,0,0,1-.63,1.22,3.39,3.39,0,0,1-2.09.5,10.77,10.77,0,0,1-1.8-.14Zm1,6.21a4.28,4.28,0,0,0,.86.07c1,0,1.68-.32,1.68-1.14,0-.67-.61-1.16-1.65-1.16h-.89Zm0-2.91h.81c1.07,0,2-.39,2-1.34s-.93-1.35-2-1.35a4.45,4.45,0,0,0-.82.05Z" transform="translate(-258.24 -350.74)"/><path class="cls-1" d="M348.73,400h-1.05l-.06-4.74a2.16,2.16,0,0,1,2.43-2.47,3.77,3.77,0,0,1,1.13.15l-.15.75a3,3,0,0,0-.88-.13c-.94,0-1.49.38-1.48,1.77Z" transform="translate(-258.24 -350.74)"/><path class="cls-1" d="M348.61,396.66a9.69,9.69,0,0,1-1.8.15,3.37,3.37,0,0,1-2.09-.51,1.41,1.41,0,0,1-.63-1.22,1.68,1.68,0,0,1,1.29-1.53v0a1.84,1.84,0,0,1-1.57-1.74,1.8,1.8,0,0,1,.64-1.38,4,4,0,0,1,2.63-.65,13.06,13.06,0,0,1,1.53.08Zm-1-2.84h-.89c-1,0-1.65.5-1.65,1.17s.68,1.13,1.67,1.13a4.78,4.78,0,0,0,.87-.06Zm0-3.32a5.83,5.83,0,0,0-.82,0c-1,0-2,.34-2,1.35s.9,1.33,2,1.33h.81Z" transform="translate(-258.24 -350.74)"/><ellipse class="cls-1" cx="47.76" cy="45.55" rx="47.29" ry="45.24"/><path class="cls-1" d="M283.62,366.93c.65,2.31,1.74,2.36,2.26,2.11,1.52-.73,1.22-3.35,1.27-5.86A30.32,30.32,0,0,1,288,357a.35.35,0,0,1,.52-.21c.42.19.79.77.69,1.82-.15,1.39-.49,5-.65,6.72-.23,2.41-1.17,3.48-2.48,4.18a2.1,2.1,0,0,1-3.12-.88,1.66,1.66,0,0,1,.22-1.74C283.37,366.66,283.55,366.65,283.62,366.93Z" transform="translate(-258.24 -350.74)"/><path class="cls-1" d="M295.06,358.21c.12-.24.28-.32.46-.22a1.34,1.34,0,0,1,.46,1.65c-.22.78-.8,2.17-1,3.08s.08,1.58.64,1.37,1.3-1.52,1.67-2.7c.05-.16.18-.21.29-.09a1.23,1.23,0,0,1,.08,1,3.38,3.38,0,0,1-2,2.28c-.92.24-1.56,0-1.83-.72a3.42,3.42,0,0,1-1.58,2c-1.49.66-2.85-.86-2.22-3.23s2-3.58,3-3.91,1.42.08,1.57.67A8.36,8.36,0,0,1,295.06,358.21Zm-1.39,1.08c-.64.16-1.71,1.62-2.11,3.29s.06,2.93.71,2.66,1.12-1.53,1.54-3.13C294.33,360.13,294.25,359.15,293.67,359.29Z" transform="translate(-258.24 -350.74)"/><path class="cls-1" d="M299.29,358a1.48,1.48,0,0,1,.53-1.29c.41-.37.89-.5,1.1-.38s.14.31-.07.69c-.07.1-.12.2-.19.32.06,1.43.61,2.57.7,3.63a1.84,1.84,0,0,1-.56,1.72,4.86,4.86,0,0,0,2.16-2.41.2.2,0,0,1,.36,0,1.24,1.24,0,0,1-.18,1,4.2,4.2,0,0,1-2.89,2.08,3,3,0,0,1-2.83-.58,1.61,1.61,0,0,1-.33-2.14c.18-.2.35-.17.43.06s.08.23.13.35C298.19,360.07,298.86,358.92,299.29,358ZM298,361.86c.49.81,1.13,1.32,1.67,1.06.76-.36.06-2.7-.25-3.9C299,359.93,298.5,360.89,298,361.86Z" transform="translate(-258.24 -350.74)"/><path class="cls-1" d="M308.72,356.68a1,1,0,0,1,.67,1.57,6.19,6.19,0,0,1,3.2-1.05c.73.14.71,1.07.17,1.75s-1.6,1.49-2.16,2.19-.46,1.54.17,1.61,1.68-.78,2.64-1.69a.21.21,0,0,1,.34,0,1.32,1.32,0,0,1-.39.91,3.74,3.74,0,0,1-2.94,1.18c-1.5-.2-2-1.28-1.19-2.48s2.84-2.68,2.55-2.81-.9,0-2.28.87a9.74,9.74,0,0,0-3.44,4.06c-.1.18-.24.23-.39.08-.3-.23-.58-.83-.06-2,.59-1.28,2.81-3.33,2.42-3.47a4.43,4.43,0,0,0-2.53,1.37,9.87,9.87,0,0,0-2.5,4c-.05.14-.15.21-.32.11-.41-.26-.57-.75-.35-1.57a16,16,0,0,1,2.74-4.78.26.26,0,0,1,.44,0,1.51,1.51,0,0,1,0,1.65A6.06,6.06,0,0,1,308.72,356.68Z" transform="translate(-258.24 -350.74)"/><path class="cls-1" d="M313.12,361.33a13.61,13.61,0,0,1,3.39-3.06c.23-.13.39-.14.51,0s.16,1-.52,1.61a26.14,26.14,0,0,0-2.25,2c-.65.76-.74,1.36-.19,1.46.77.15,2-.55,2.9-1.39.14-.11.26-.05.29.09s-.11.57-.44.87a3.65,3.65,0,0,1-3,.83C312.49,363.48,312.33,362.47,313.12,361.33Zm5.38-2.76a.92.92,0,0,1-1.06-.57.77.77,0,0,1,.46-1.06,1,1,0,0,1,1.09.69A.77.77,0,0,1,318.5,358.57Z" transform="translate(-258.24 -350.74)"/><path class="cls-1" d="M324,360.81a1,1,0,0,1-.09,1.82,29.8,29.8,0,0,0-2.88,1.52c-.85.6-1.06,1.31-.47,1.55s2-.21,3.16-.78c.16-.07.28,0,.3.15s-.21.49-.67.75a3.9,3.9,0,0,1-3.2.22c-1.35-.63-1.32-1.63-.26-2.64s3.59-1.85,3.31-2.13a5.19,5.19,0,0,0-3.08.24,11.09,11.09,0,0,0-4,2.76c-.12.11-.24.14-.34,0-.24-.39-.2-.91.32-1.57a16.48,16.48,0,0,1,4.59-3.26.26.26,0,0,1,.41.16,1.45,1.45,0,0,1-.54,1.38C321.71,360.6,323.41,360.43,324,360.81Z" transform="translate(-258.24 -350.74)"/><path class="cls-1" d="M324.52,367.92c1.21.88,3.07.73,4.42.5.16,0,.27.07.24.22a1.14,1.14,0,0,1-.91.51,6,6,0,0,1-4-.83c-1.9-1.22-1.7-3.26.5-4.32s4.57-.45,5.14.55a3.44,3.44,0,0,1,.48,1.4c0,.52-.74,1.11-1.92,1.22a3,3,0,0,1-3.28-1.73C323.89,366.3,323.75,367.37,324.52,367.92Zm3.48-2c.93-.13,1.83-.47,1.7-.78-.19-.48-2.22-.77-3.85-.05l-.28.14C326.11,366.16,327.15,366.07,328,365.94Z" transform="translate(-258.24 -350.74)"/><path class="cls-1" d="M291.83,426.44c-.11-.16,0-.23.25-.23,1.68,0,3.9-.75,5.52-.82,1.23-.05,2.39.22,2.77,1.39a2.45,2.45,0,0,1-1,2.8,8.18,8.18,0,0,1-3.92,1.55,3.14,3.14,0,0,1,1.11.84c.48.57.39,1.56-.7,2.09a6.82,6.82,0,0,1-4.15.23,4.49,4.49,0,0,1-1.77-.82,5.29,5.29,0,0,1-1-1.05c-.3-.4-.51-.65,0-1.23a36.86,36.86,0,0,1,4.54-4.11A2.17,2.17,0,0,1,291.83,426.44Zm1.06,4.68a3.9,3.9,0,0,1-1.41-.41,9.57,9.57,0,0,0-1.56,1.6c-.23.35,0,.61.66.82a6.48,6.48,0,0,0,4.47-.21c.93-.53.95-1.24-1.18-1.71C293.54,431.19,293.21,431.16,292.89,431.12Zm6.57-4.21c-.42-.88-2.87-.16-4.55.1,0,.34-.18.8-.82,1.43s-1.25,1.12-2,1.71C296.72,430.37,300,428.06,299.46,426.91Z" transform="translate(-258.24 -350.74)"/><path class="cls-1" d="M298.16,433.64a24,24,0,0,1,3.4-3.85c.23-.2.41-.25.6-.08.36.29.54,1.06-.09,1.9s-1.68,1.83-2.25,2.62-.64,1.58.17,1.66c1.15.11,2.64-.91,3.44-2.09a.24.24,0,0,1,.41,0c.2.3.12.67-.21,1.09a4.41,4.41,0,0,1-3.92,1.45C297.76,436.07,297.38,434.9,298.16,433.64Zm5.78-4.09a1.11,1.11,0,0,1-1.39-.3.87.87,0,0,1,.17-1.3,1.08,1.08,0,0,1,1.41.42A.85.85,0,0,1,303.94,429.55Z" transform="translate(-258.24 -350.74)"/><path class="cls-1" d="M305,429.12c-.25-.23-.05-.33.33-.33.57,0,1.26,0,2,0,.74-.93,1.43-1.74,1.81-2.15.24-.23.46-.23.59,0,.28.49.3,1.08-.32,2.05,1.31-.06,2.59-.17,3.59-.25a23,23,0,0,1,1.64-2c.23-.22.45-.18.58,0,.32.44.33,1-.19,1.89a2.06,2.06,0,0,1,1.53.42c.19.17.07.3-.29.32s-1.05.06-1.83.13c-.86,1.23-2.3,3-3.21,4.57-.8,1.34-.46,2.41.61,2.34s2.53-1.52,3.39-2.89c.14-.22.4-.29.52-.08s0,.56-.19,1a5.68,5.68,0,0,1-4,2.48,2.11,2.11,0,0,1-2.31-1.27,4.85,4.85,0,0,1-3.57,1.52c-1.77-.07-3.06-1.46-1.8-3.45.53-.84,1.65-2.31,2.73-3.68A2.58,2.58,0,0,1,305,429.12Zm3.71.51c-.95,1.21-2.31,2.83-3.28,4.27-.87,1.28-.58,2.4.53,2.44s2.71-1.37,3.5-2.71c.57-1,1.76-2.74,2.85-4.28C311.07,429.46,309.78,429.58,308.7,429.63Z" transform="translate(-258.24 -350.74)"/><path class="cls-1" d="M315.82,435.9c-1.77.27-1.9-1-1.42-2.2a17.3,17.3,0,0,1,3.11-4.55.48.48,0,0,1,.62-.08c.56.45.49,1.13-.31,2.15a16.41,16.41,0,0,0-1.73,2.66c-.46.88-.35,1.47.22,1.39,1-.15,2.2-1.6,3.37-3.17a35.2,35.2,0,0,1,2.67-3.55c.22-.22.38-.26.57-.16.35.18.54.68,0,1.44s-1.53,2-2,2.87-.39,1.57.39,1.26a8.32,8.32,0,0,0,2.74-2.84c.11-.15.29-.22.38-.15s.1.37-.18.82a7.11,7.11,0,0,1-3.11,2.67c-1.43.54-2.11.07-2-.85A6.1,6.1,0,0,1,315.82,435.9Z" transform="translate(-258.24 -350.74)"/><path class="cls-1" d="M279,368.69a33.23,33.23,0,0,0-6.29,5.79,32,32,0,0,0-6.29,12" transform="translate(-258.24 -350.74)"/><path class="cls-1" d="M332.11,368.69a33.25,33.25,0,0,1,6.3,5.79,32.11,32.11,0,0,1,6.29,12" transform="translate(-258.24 -350.74)"/><path class="cls-1" d="M264.74,403.43a44.48,44.48,0,0,0,7.74,15.28,46.58,46.58,0,0,0,12.1,10.88" transform="translate(-258.24 -350.74)"/><path class="cls-1" d="M347.62,403.43a44.48,44.48,0,0,1-7.74,15.28,46.74,46.74,0,0,1-12.1,10.88" transform="translate(-258.24 -350.74)"/></g><g id="Layer_1" data-name="Layer 1"><path class="cls-2" d="M302.84,379.63l3,0,.17,14.59c.07,5.79-2.95,7.6-7,7.64a10.45,10.45,0,0,1-3.22-.48l.42-2.3a7.59,7.59,0,0,0,2.53.39c2.69,0,4.27-1.17,4.22-5.45Z" transform="translate(-258.24 -350.74)"/><path class="cls-2" d="M303.21,389.82a27.19,27.19,0,0,1,5.14-.45c2.82,0,4.63.48,6,1.56a4.42,4.42,0,0,1,1.82,3.77,5.08,5.08,0,0,1-3.69,4.7v.07a5.53,5.53,0,0,1,4.49,5.36,5.73,5.73,0,0,1-1.84,4.29c-1.52,1.36-4,2-7.53,2a32.84,32.84,0,0,1-4.37-.26Zm2.81,8.76h2.56c3,0,4.72-1.53,4.72-3.59,0-2.51-1.94-3.49-4.79-3.49a12,12,0,0,0-2.49.19Zm0,10.25a14.67,14.67,0,0,0,2.36.13c2.91,0,5.6-1,5.6-4.16,0-2.92-2.56-4.13-5.63-4.13H306Z" transform="translate(-258.24 -350.74)"/><path class="cls-2" d="M263.86,395.48c0-1.39-.54-1.76-1.48-1.77a3,3,0,0,0-.88.13l-.15-.74a3.46,3.46,0,0,1,1.13-.16,2.16,2.16,0,0,1,2.43,2.48l-.06,4.73H263.8Z" transform="translate(-258.24 -350.74)"/><path class="cls-2" d="M263.93,390a12.72,12.72,0,0,1,1.52-.08,4,4,0,0,1,2.63.65,1.78,1.78,0,0,1,.65,1.39,1.85,1.85,0,0,1-1.57,1.74v0a1.66,1.66,0,0,1,1.28,1.52,1.39,1.39,0,0,1-.63,1.22,3.37,3.37,0,0,1-2.09.51,9.57,9.57,0,0,1-1.79-.15Zm1,6.22a4.78,4.78,0,0,0,.87.06c1,0,1.67-.32,1.67-1.13s-.61-1.17-1.65-1.17h-.89Zm0-2.92h.81c1.08,0,2-.39,2-1.33s-.94-1.35-2-1.35a5.83,5.83,0,0,0-.82,0Z" transform="translate(-258.24 -350.74)"/><path class="cls-2" d="M348.76,400.16h-1.05l-.06-4.73a2.16,2.16,0,0,1,2.43-2.48,4,4,0,0,1,1.12.16l-.14.74a2.77,2.77,0,0,0-.89-.12c-.94,0-1.49.38-1.47,1.76Z" transform="translate(-258.24 -350.74)"/><path class="cls-2" d="M348.63,396.86a10.77,10.77,0,0,1-1.8.14,3.39,3.39,0,0,1-2.09-.5,1.43,1.43,0,0,1-.63-1.23,1.68,1.68,0,0,1,1.29-1.52v0a1.85,1.85,0,0,1-1.57-1.74,1.8,1.8,0,0,1,.64-1.39,4.11,4.11,0,0,1,2.63-.65,13.06,13.06,0,0,1,1.53.08Zm-1-2.84h-.9c-1,0-1.64.49-1.64,1.16s.67,1.13,1.67,1.13a4.78,4.78,0,0,0,.87-.06Zm0-3.33a6.09,6.09,0,0,0-.83,0c-1,0-1.95.34-1.95,1.35s.89,1.34,2,1.34h.82Z" transform="translate(-258.24 -350.74)"/><ellipse class="cls-3" cx="47.79" cy="45.74" rx="47.29" ry="45.24"/><path class="cls-2" d="M283.62,366.93c.65,2.31,1.74,2.36,2.26,2.11,1.52-.73,1.22-3.35,1.27-5.86A30.32,30.32,0,0,1,288,357a.35.35,0,0,1,.52-.21c.42.19.79.77.69,1.82-.15,1.39-.49,5-.65,6.72-.23,2.41-1.17,3.48-2.48,4.18a2.1,2.1,0,0,1-3.12-.88,1.66,1.66,0,0,1,.22-1.74C283.37,366.66,283.55,366.65,283.62,366.93Z" transform="translate(-258.24 -350.74)"/><path class="cls-2" d="M295.06,358.21c.12-.24.28-.32.46-.22a1.34,1.34,0,0,1,.46,1.65c-.22.78-.8,2.17-1,3.08s.08,1.58.64,1.37,1.3-1.52,1.67-2.7c.05-.16.18-.21.29-.09a1.23,1.23,0,0,1,.08,1,3.38,3.38,0,0,1-2,2.28c-.92.24-1.56,0-1.83-.72a3.42,3.42,0,0,1-1.58,2c-1.49.66-2.85-.86-2.22-3.23s2-3.58,3-3.91,1.42.08,1.57.67A8.36,8.36,0,0,1,295.06,358.21Zm-1.39,1.08c-.64.16-1.71,1.62-2.1,3.29s.05,2.93.7,2.66,1.12-1.53,1.54-3.13C294.33,360.13,294.25,359.15,293.67,359.29Z" transform="translate(-258.24 -350.74)"/><path class="cls-2" d="M299.29,358a1.48,1.48,0,0,1,.53-1.29c.41-.37.89-.5,1.1-.38s.14.31-.07.69c-.07.1-.12.2-.19.32.06,1.43.61,2.57.7,3.63a1.84,1.84,0,0,1-.56,1.72,4.86,4.86,0,0,0,2.16-2.41.2.2,0,0,1,.36,0,1.24,1.24,0,0,1-.18,1,4.2,4.2,0,0,1-2.89,2.08,3,3,0,0,1-2.83-.58,1.61,1.61,0,0,1-.33-2.14c.18-.2.35-.17.43.06s.08.23.13.35C298.19,360.07,298.86,358.92,299.29,358ZM298,361.86c.49.81,1.13,1.32,1.67,1.06.76-.36.06-2.7-.25-3.9C299,359.93,298.5,360.89,298,361.86Z" transform="translate(-258.24 -350.74)"/><path class="cls-2" d="M308.72,356.68a1,1,0,0,1,.67,1.57,6.19,6.19,0,0,1,3.2-1.05c.73.14.71,1.07.17,1.75s-1.6,1.49-2.16,2.19-.46,1.54.17,1.61,1.68-.78,2.64-1.69a.21.21,0,0,1,.34,0,1.32,1.32,0,0,1-.39.91,3.74,3.74,0,0,1-2.94,1.18c-1.5-.2-2-1.28-1.19-2.48s2.84-2.68,2.55-2.81-.9,0-2.28.87a9.74,9.74,0,0,0-3.44,4.06c-.1.18-.24.23-.39.08-.3-.23-.58-.83-.06-2,.59-1.28,2.81-3.33,2.42-3.47a4.43,4.43,0,0,0-2.53,1.37,9.87,9.87,0,0,0-2.5,4c-.05.14-.15.21-.32.11-.41-.26-.57-.75-.35-1.57a16,16,0,0,1,2.74-4.78.26.26,0,0,1,.44,0,1.51,1.51,0,0,1,0,1.65A6.06,6.06,0,0,1,308.72,356.68Z" transform="translate(-258.24 -350.74)"/><path class="cls-2" d="M313.12,361.33a13.61,13.61,0,0,1,3.39-3.06c.23-.13.39-.14.51,0s.16,1-.52,1.61a26.14,26.14,0,0,0-2.25,2c-.65.76-.74,1.36-.19,1.46.77.15,2-.55,2.9-1.39.14-.11.26-.05.29.09s-.11.57-.44.87a3.65,3.65,0,0,1-3,.83C312.49,363.48,312.33,362.47,313.12,361.33Zm5.38-2.76a.92.92,0,0,1-1.06-.57.77.77,0,0,1,.46-1.06,1,1,0,0,1,1.09.69A.77.77,0,0,1,318.5,358.57Z" transform="translate(-258.24 -350.74)"/><path class="cls-2" d="M324,360.81a1,1,0,0,1-.09,1.82,29.8,29.8,0,0,0-2.88,1.52c-.85.6-1.06,1.31-.47,1.55s2-.21,3.16-.78c.16-.07.28,0,.29.15s-.2.49-.66.75a3.9,3.9,0,0,1-3.2.22c-1.35-.63-1.32-1.63-.26-2.64s3.59-1.85,3.31-2.13a5.19,5.19,0,0,0-3.08.24,11.09,11.09,0,0,0-4,2.76c-.12.11-.24.14-.34,0-.24-.39-.2-.91.32-1.57a16.48,16.48,0,0,1,4.59-3.26.26.26,0,0,1,.41.16,1.45,1.45,0,0,1-.54,1.38C321.71,360.6,323.41,360.43,324,360.81Z" transform="translate(-258.24 -350.74)"/><path class="cls-2" d="M324.52,367.92c1.21.88,3.07.73,4.42.5.16,0,.27.07.24.22a1.16,1.16,0,0,1-.91.51,6,6,0,0,1-4-.83c-1.9-1.22-1.7-3.26.5-4.32s4.57-.45,5.14.55a3.44,3.44,0,0,1,.48,1.4c0,.52-.74,1.11-1.92,1.22a3,3,0,0,1-3.28-1.73C323.89,366.3,323.75,367.37,324.52,367.92Zm3.48-2c.93-.13,1.83-.47,1.7-.78-.19-.48-2.22-.77-3.85-.05l-.28.14C326.11,366.16,327.15,366.07,328,365.94Z" transform="translate(-258.24 -350.74)"/><path class="cls-2" d="M291.83,426.44c-.11-.16,0-.23.25-.23,1.68,0,3.9-.75,5.52-.82,1.23-.05,2.39.22,2.77,1.39a2.45,2.45,0,0,1-1,2.8,8.18,8.18,0,0,1-3.92,1.55,3.14,3.14,0,0,1,1.11.84c.48.57.39,1.56-.7,2.09a6.82,6.82,0,0,1-4.15.23,4.49,4.49,0,0,1-1.77-.82,5.29,5.29,0,0,1-1-1.05c-.3-.4-.51-.65,0-1.23a36.86,36.86,0,0,1,4.54-4.11A2.17,2.17,0,0,1,291.83,426.44Zm1.06,4.68a3.9,3.9,0,0,1-1.41-.41,9.57,9.57,0,0,0-1.56,1.6c-.23.35,0,.61.66.82a6.48,6.48,0,0,0,4.47-.21c.93-.53.95-1.24-1.18-1.71C293.54,431.19,293.21,431.16,292.89,431.12Zm6.57-4.21c-.42-.88-2.87-.16-4.55.1,0,.34-.18.8-.82,1.43s-1.25,1.12-2,1.71C296.72,430.37,300,428.06,299.46,426.91Z" transform="translate(-258.24 -350.74)"/><path class="cls-2" d="M298.16,433.64a24,24,0,0,1,3.4-3.85c.23-.2.41-.25.6-.08.36.29.54,1.06-.09,1.9s-1.68,1.83-2.25,2.62-.64,1.58.17,1.66c1.15.11,2.64-.91,3.44-2.09a.24.24,0,0,1,.41,0c.2.3.12.67-.21,1.09a4.41,4.41,0,0,1-3.92,1.45C297.76,436.07,297.38,434.9,298.16,433.64Zm5.78-4.09a1.11,1.11,0,0,1-1.39-.3.87.87,0,0,1,.17-1.3,1.08,1.08,0,0,1,1.41.42A.85.85,0,0,1,303.94,429.55Z" transform="translate(-258.24 -350.74)"/><path class="cls-2" d="M305,429.12c-.25-.23-.05-.33.33-.33.57,0,1.26,0,2,0,.74-.93,1.43-1.74,1.81-2.15.24-.23.46-.23.59,0,.28.49.3,1.08-.32,2.05,1.31-.06,2.59-.17,3.59-.25a23,23,0,0,1,1.64-2c.23-.22.45-.18.58,0,.32.44.33,1-.19,1.89a2.06,2.06,0,0,1,1.53.42c.19.17.07.3-.29.32s-1.05.06-1.83.13c-.86,1.23-2.3,3-3.21,4.57-.8,1.34-.46,2.41.61,2.34s2.53-1.52,3.39-2.89c.14-.22.4-.29.52-.08s0,.56-.19,1a5.68,5.68,0,0,1-4,2.48,2.11,2.11,0,0,1-2.31-1.27,4.85,4.85,0,0,1-3.57,1.52c-1.77-.07-3.06-1.46-1.8-3.45.53-.84,1.65-2.31,2.73-3.68A2.58,2.58,0,0,1,305,429.12Zm3.71.51c-.95,1.21-2.31,2.83-3.28,4.27-.87,1.28-.58,2.4.53,2.44s2.71-1.37,3.5-2.71c.57-1,1.76-2.74,2.85-4.28C311.07,429.46,309.78,429.58,308.7,429.63Z" transform="translate(-258.24 -350.74)"/><path class="cls-2" d="M315.82,435.9c-1.77.27-1.9-1-1.42-2.2a17.3,17.3,0,0,1,3.11-4.55.48.48,0,0,1,.62-.08c.56.45.49,1.13-.31,2.15a16.41,16.41,0,0,0-1.73,2.66c-.46.88-.35,1.47.22,1.39,1-.15,2.2-1.6,3.37-3.17a35.2,35.2,0,0,1,2.67-3.55c.22-.22.38-.26.57-.16.35.18.54.68,0,1.44s-1.53,2-2,2.87-.39,1.57.39,1.26a8.32,8.32,0,0,0,2.74-2.84c.11-.15.29-.22.38-.15s.1.37-.18.82a7.11,7.11,0,0,1-3.11,2.67c-1.43.54-2.11.07-2-.85A6.1,6.1,0,0,1,315.82,435.9Z" transform="translate(-258.24 -350.74)"/><path class="cls-3" d="M279,368.88a32.93,32.93,0,0,0-6.29,5.79,32.16,32.16,0,0,0-6.3,12" transform="translate(-258.24 -350.74)"/><path class="cls-3" d="M332.14,368.88a32.93,32.93,0,0,1,6.29,5.79,32,32,0,0,1,6.29,12" transform="translate(-258.24 -350.74)"/><path class="cls-3" d="M264.76,403.62a44.66,44.66,0,0,0,7.74,15.28,46.83,46.83,0,0,0,12.11,10.89" transform="translate(-258.24 -350.74)"/><path class="cls-3" d="M347.65,403.62a44.72,44.72,0,0,1-7.75,15.28,46.66,46.66,0,0,1-12.1,10.89" transform="translate(-258.24 -350.74)"/></g></svg>