<?xml version="1.0" encoding="utf-8"?>
<!-- Generator: Adobe Illustrator 25.4.1, SVG Export Plug-In . SVG Version: 6.00 Build 0)  -->
<svg version="1.1" xmlns="http://www.w3.org/2000/svg" xmlns:xlink="http://www.w3.org/1999/xlink" x="0px" y="0px"
	 viewBox="0 0 95.6 91.5" style="enable-background:new 0 0 95.6 91.5;" xml:space="preserve">
<style type="text/css">
	.st0{fill:#FFFFFF;}
	.st1{fill:none;stroke:#FFFFFF;stroke-miterlimit:10;}
	.st2{fill:#231F20;}
	.st3{fill:none;stroke:#231F20;stroke-miterlimit:10;}
</style>
<g id="Layer_3">
	<path class="st0" d="M45,28.5h3l0.2,14.6c0.1,5.8-3,7.6-7,7.6c-1.1,0-2.2-0.2-3.2-0.5l0.4-2.3c0.8,0.3,1.7,0.4,2.5,0.4
		c2.7,0,4.3-1.2,4.2-5.5L45,28.5z"/>
	<path class="st0" d="M45.4,38.7c1.7-0.3,3.4-0.5,5.1-0.5c2.8,0,4.6,0.5,6,1.6c1.2,0.9,1.9,2.3,1.8,3.8c-0.1,2.2-1.6,4.1-3.7,4.7
		v0.1c2.6,0.5,4.5,2.7,4.5,5.4c0,1.6-0.6,3.2-1.8,4.3c-1.5,1.4-4,2-7.5,2c-1.5,0-2.9-0.1-4.4-0.3L45.4,38.7z M48.2,47.5h2.6
		c3,0,4.7-1.5,4.7-3.6c0-2.5-1.9-3.5-4.8-3.5c-0.8,0-1.7,0-2.5,0.2V47.5z M48.2,57.7c0.8,0.1,1.6,0.2,2.4,0.1c2.9,0,5.6-1,5.6-4.2
		c0-2.9-2.6-4.1-5.6-4.1h-2.3L48.2,57.7z"/>
	<path class="st0" d="M6,44.4c0-1.4-0.5-1.8-1.5-1.8c-0.3,0-0.6,0-0.9,0.1L3.5,42c0.4-0.1,0.7-0.2,1.1-0.2c1.2-0.2,2.3,0.7,2.4,1.8
		c0,0.2,0,0.4,0,0.6L7,49H6L6,44.4z"/>
	<path class="st0" d="M6.1,38.9c0.5-0.1,1-0.1,1.5-0.1c0.9-0.1,1.9,0.1,2.6,0.6c0.4,0.3,0.7,0.9,0.6,1.4c0,0.9-0.7,1.6-1.6,1.7l0,0
		c0.7,0.2,1.2,0.8,1.3,1.5c0,0.5-0.2,1-0.6,1.2c-0.6,0.4-1.4,0.6-2.1,0.5c-0.6,0-1.2,0-1.8-0.1L6.1,38.9z M7.1,45.1
		c0.3,0,0.6,0.1,0.9,0.1c1,0,1.7-0.3,1.7-1.1S9,42.9,8,42.9H7.1V45.1z M7.1,42.2h0.8c1.1,0,2-0.4,2-1.3s-0.9-1.4-2-1.4
		c-0.3,0-0.5,0-0.8,0L7.1,42.2z"/>
	<path class="st0" d="M90.9,49.1h-1l-0.1-4.7c-0.2-1.2,0.6-2.3,1.8-2.5c0.2,0,0.4,0,0.6,0c0.4,0,0.8,0.1,1.1,0.2l-0.1,0.7
		c-0.3-0.1-0.6-0.1-0.9-0.1c-0.9,0-1.5,0.4-1.5,1.8L90.9,49.1z"/>
	<path class="st0" d="M90.8,45.8c-0.6,0.1-1.2,0.1-1.8,0.1c-0.7,0.1-1.5-0.1-2.1-0.5c-0.4-0.3-0.6-0.7-0.6-1.2
		c0.1-0.7,0.6-1.4,1.3-1.5l0,0c-0.9-0.1-1.5-0.9-1.6-1.7c0-0.5,0.2-1,0.6-1.4c0.8-0.5,1.7-0.7,2.6-0.6c0.5,0,1,0,1.5,0.1L90.8,45.8z
		 M89.8,42.9h-0.9c-1,0-1.6,0.5-1.6,1.2s0.7,1.1,1.7,1.1c0.3,0,0.6,0,0.9-0.1V42.9z M89.8,39.6c-0.3,0-0.6,0-0.8,0c-1,0-2,0.3-2,1.4
		s0.9,1.3,2,1.3h0.8L89.8,39.6z"/>
	<ellipse class="st1" cx="48.2" cy="45.4" rx="47.3" ry="45.2"/>
	<path class="st0" d="M25.8,15.8c0.6,2.3,1.7,2.4,2.3,2.1c1.5-0.7,1.2-3.4,1.3-5.9c0.1-2.1,0.4-4.2,0.9-6.2c0-0.2,0.2-0.3,0.4-0.2
		c0,0,0.1,0,0.1,0c0.4,0.2,0.8,0.8,0.7,1.8c-0.1,1.4-0.5,5-0.6,6.7c-0.2,2.4-1.2,3.5-2.5,4.2c-1,0.7-2.3,0.4-2.9-0.5
		c-0.1-0.1-0.1-0.2-0.2-0.4c-0.3-0.6-0.2-1.2,0.2-1.7C25.5,15.6,25.7,15.5,25.8,15.8z"/>
	<path class="st0" d="M37.2,7.1c0.1-0.2,0.3-0.3,0.5-0.2c0.5,0.4,0.7,1.1,0.5,1.6c-0.2,0.8-0.8,2.2-1,3.1s0.1,1.6,0.6,1.4
		s1.3-1.5,1.7-2.7c0-0.2,0.2-0.2,0.3-0.1c0.2,0.3,0.2,0.7,0.1,1c-0.3,1-1,1.9-2,2.3c-0.9,0.2-1.6,0-1.8-0.7c-0.2,0.8-0.8,1.6-1.6,2
		c-1.5,0.7-2.9-0.9-2.2-3.2c0.6-2.4,2-3.6,3-3.9s1.4,0.1,1.6,0.7C36.9,7.9,37,7.5,37.2,7.1z M35.8,8.2c-0.6,0.2-1.7,1.6-2.1,3.3
		s0,2.9,0.7,2.7s1.1-1.5,1.5-3.1C36.5,9,36.4,8,35.8,8.2L35.8,8.2z"/>
	<path class="st0" d="M41.4,6.9c0-0.5,0.1-1,0.5-1.3c0.4-0.4,0.9-0.5,1.1-0.4s0.1,0.3-0.1,0.7c-0.1,0.1-0.1,0.2-0.2,0.3
		c0.1,1.4,0.6,2.6,0.7,3.6c0.1,0.6-0.1,1.3-0.6,1.7c1-0.5,1.7-1.4,2.2-2.4c0-0.1,0.2-0.1,0.3-0.1c0,0,0.1,0.1,0.1,0.1
		c0.1,0.3,0,0.7-0.2,1c-0.6,1.1-1.7,1.8-2.9,2.1c-1,0.3-2,0.1-2.8-0.6c-0.6-0.5-0.8-1.4-0.3-2.1c0.2-0.2,0.4-0.2,0.4,0.1
		s0.1,0.2,0.1,0.4C40.3,9,41,7.8,41.4,6.9z M40.2,10.8c0.5,0.8,1.1,1.3,1.7,1.1c0.8-0.4,0.1-2.7-0.2-3.9
		C41.2,8.8,40.7,9.8,40.2,10.8z"/>
	<path class="st0" d="M50.9,5.6c0.5,0.1,0.9,0.6,0.8,1.1c0,0.2-0.1,0.3-0.2,0.4c0.9-0.6,2.1-1,3.2-1c0.7,0.1,0.7,1.1,0.2,1.8
		s-1.6,1.5-2.2,2.2s-0.5,1.5,0.2,1.6s1.7-0.8,2.6-1.7c0.1-0.1,0.2-0.1,0.3,0c0,0,0,0,0,0c0,0.3-0.1,0.7-0.4,0.9
		c-0.8,0.8-1.8,1.2-2.9,1.2c-1.5-0.2-2-1.3-1.2-2.5s2.8-2.7,2.5-2.8s-0.9,0-2.3,0.9c-1.5,1-2.7,2.4-3.4,4.1
		c-0.1,0.2-0.2,0.2-0.4,0.1c-0.3-0.2-0.6-0.8-0.1-2c0.6-1.3,2.8-3.3,2.4-3.5c-1,0.2-1.9,0.6-2.5,1.4c-1.1,1.1-2,2.5-2.5,4
		c0,0.1-0.1,0.2-0.3,0.1c-0.4-0.3-0.6-0.8-0.4-1.6c0.6-1.7,1.6-3.4,2.7-4.8c0.1-0.1,0.2-0.2,0.4-0.1c0,0,0.1,0,0.1,0.1
		c0.3,0.5,0.3,1.1,0,1.6C48.6,6.3,49.7,5.7,50.9,5.6z"/>
	<path class="st0" d="M55.3,10.2C56.2,9,57.4,8,58.7,7.2c0.2-0.1,0.4-0.1,0.5,0s0.2,1-0.5,1.6c-0.8,0.6-1.5,1.3-2.2,2
		c-0.6,0.8-0.7,1.4-0.2,1.5c0.8,0.1,2-0.5,2.9-1.4c0.1-0.1,0.3,0,0.3,0.1s-0.1,0.6-0.4,0.9c-0.8,0.7-1.9,1-3,0.8
		C54.6,12.4,54.5,11.4,55.3,10.2z M60.7,7.5c-0.4,0.1-0.9-0.1-1.1-0.6c-0.2-0.4,0-0.8,0.4-1c0,0,0.1,0,0.1,0
		c0.5-0.1,0.9,0.2,1.1,0.7C61.3,6.9,61,7.3,60.7,7.5L60.7,7.5z"/>
	<path class="st0" d="M66.2,9.7c0.5,0.3,0.7,0.9,0.4,1.3c-0.1,0.2-0.3,0.4-0.5,0.5c-1,0.5-1.9,1-2.9,1.5c-0.9,0.6-1.1,1.3-0.5,1.5
		s2-0.2,3.2-0.8c0.2-0.1,0.3,0,0.3,0.1s-0.2,0.5-0.7,0.8c-1,0.5-2.2,0.6-3.2,0.2C61,14.3,61,13.3,62,12.3s3.6-1.9,3.3-2.1
		c-1-0.2-2.1-0.2-3.1,0.2c-1.5,0.6-2.9,1.6-4,2.8c-0.1,0.1-0.2,0.1-0.3,0c-0.2-0.4-0.2-0.9,0.3-1.6c1.3-1.3,2.9-2.4,4.6-3.3
		c0.1-0.1,0.3-0.1,0.4,0.1c0,0,0,0.1,0,0.1c0.1,0.5-0.1,1.1-0.5,1.4C63.9,9.5,65.6,9.3,66.2,9.7z"/>
	<path class="st0" d="M66.7,16.8c1.2,0.9,3.1,0.7,4.4,0.5c0.2,0,0.3,0.1,0.2,0.2c-0.2,0.3-0.5,0.5-0.9,0.5c-1.4,0.2-2.8-0.1-4-0.8
		c-1.9-1.2-1.7-3.3,0.5-4.3s4.6-0.5,5.1,0.5c0.3,0.4,0.4,0.9,0.5,1.4c0,0.5-0.7,1.1-1.9,1.2c-1.4,0.2-2.7-0.5-3.3-1.7
		C66,15.2,65.9,16.3,66.7,16.8z M70.2,14.8c0.9-0.1,1.8-0.5,1.7-0.8c-0.2-0.5-2.2-0.8-3.9,0l-0.3,0.1C68.3,15.1,69.3,15,70.2,14.8
		L70.2,14.8z"/>
	<path class="st0" d="M34,75.3c-0.1-0.2,0-0.2,0.2-0.2c1.7,0,3.9-0.8,5.5-0.8c1.2,0,2.4,0.2,2.8,1.4c0.3,1.1-0.1,2.2-1,2.8
		c-1.1,0.9-2.5,1.4-3.9,1.5c0.4,0.2,0.8,0.5,1.1,0.8c0.5,0.6,0.4,1.6-0.7,2.1c-1.3,0.5-2.8,0.6-4.1,0.2c-0.6-0.1-1.2-0.4-1.8-0.8
		c-0.4-0.3-0.7-0.7-1-1c-0.3-0.4-0.5-0.6,0-1.2c1.4-1.5,2.9-2.9,4.5-4.1C35,76,34.4,75.8,34,75.3z M35,80c-0.5,0-1-0.2-1.4-0.4
		c-0.6,0.5-1.1,1-1.6,1.6c-0.2,0.4,0,0.6,0.7,0.8c1.5,0.5,3.1,0.4,4.5-0.2c0.9-0.5,1-1.2-1.2-1.7C35.7,80.1,35.4,80.1,35,80L35,80z
		 M41.6,75.8c-0.4-0.9-2.9-0.2-4.5,0.1c0,0.3-0.2,0.8-0.8,1.4s-1.2,1.1-2,1.7C38.9,79.3,42.2,77,41.6,75.8z"/>
	<path class="st0" d="M40.3,82.5c1-1.4,2.1-2.7,3.4-3.9c0.2-0.2,0.4-0.2,0.6-0.1c0.4,0.3,0.5,1.1-0.1,1.9s-1.7,1.8-2.2,2.6
		s-0.6,1.6,0.2,1.7c1.1,0.1,2.6-0.9,3.4-2.1c0.1-0.1,0.2-0.1,0.3-0.1c0,0,0.1,0,0.1,0.1c0.2,0.3,0.1,0.7-0.2,1.1
		c-1,1.1-2.5,1.7-3.9,1.5C39.9,85,39.5,83.8,40.3,82.5z M46.1,78.4c-0.5,0.2-1.1,0.1-1.4-0.3c-0.3-0.4-0.3-0.9,0.1-1.2
		c0,0,0.1-0.1,0.1-0.1c0.5-0.3,1.1-0.1,1.4,0.4C46.6,77.6,46.5,78.2,46.1,78.4L46.1,78.4z"/>
	<path class="st0" d="M47.2,78c-0.2-0.2,0-0.3,0.3-0.3c0.6,0,1.3,0,2,0c0.7-0.9,1.4-1.7,1.8-2.1c0.2-0.2,0.5-0.2,0.6,0
		c0.3,0.5,0.3,1.1-0.3,2c1.3-0.1,2.6-0.2,3.6-0.2c0.5-0.7,1.1-1.4,1.6-2c0.2-0.2,0.5-0.2,0.6,0c0.3,0.4,0.3,1-0.2,1.9
		c0.5-0.1,1.1,0.1,1.5,0.4c0.2,0.2,0.1,0.3-0.3,0.3s-1,0.1-1.8,0.1c-0.9,1.2-2.3,3-3.2,4.6C52.6,84,52.9,85.1,54,85s2.5-1.5,3.4-2.9
		c0.1-0.2,0.4-0.3,0.5-0.1s0,0.6-0.2,1c-0.9,1.4-2.4,2.3-4,2.5c-1,0.2-1.9-0.4-2.3-1.3c-0.9,1-2.2,1.5-3.6,1.5
		c-1.8-0.1-3.1-1.5-1.8-3.5c0.5-0.8,1.6-2.3,2.7-3.7C48.2,78.6,47.6,78.4,47.2,78z M50.9,78.5c-1,1.2-2.3,2.8-3.3,4.3
		c-0.9,1.3-0.6,2.4,0.5,2.4s2.7-1.4,3.5-2.7c0.6-1,1.8-2.7,2.9-4.3C53.2,78.4,51.9,78.5,50.9,78.5L50.9,78.5z"/>
	<path class="st0" d="M58,84.8c-1.8,0.3-1.9-1-1.4-2.2c0.8-1.7,1.8-3.2,3.1-4.5c0.2-0.2,0.4-0.2,0.6-0.1c0.6,0.5,0.5,1.1-0.3,2.1
		c-0.7,0.8-1.2,1.7-1.7,2.7c-0.5,0.9-0.4,1.5,0.2,1.4c1-0.1,2.2-1.6,3.4-3.2c0.8-1.2,1.7-2.4,2.7-3.5c0.2-0.2,0.4-0.3,0.6-0.2
		c0.4,0.2,0.5,0.7,0,1.4s-1.5,2-2,2.9s-0.4,1.6,0.4,1.3c1.1-0.7,2.1-1.7,2.7-2.8c0.1-0.1,0.3-0.2,0.4-0.1s0.1,0.4-0.2,0.8
		c-0.8,1.2-1.8,2.1-3.1,2.7c-1.4,0.5-2.1,0.1-2-0.9C60.5,83.6,59.3,84.4,58,84.8z"/>
	<path class="st1" d="M21.2,17.8c-2.3,1.6-4.5,3.6-6.3,5.8c-2.9,3.5-5.1,7.6-6.3,12"/>
	<path class="st1" d="M74.3,17.8c2.3,1.6,4.5,3.6,6.3,5.8c2.9,3.5,5.1,7.6,6.3,12"/>
	<path class="st1" d="M6.9,52.5c1.6,5.5,4.2,10.7,7.7,15.3c3.4,4.3,7.5,8,12.1,10.9"/>
	<path class="st1" d="M89.8,52.5c-1.6,5.5-4.2,10.7-7.8,15.3c-3.4,4.3-7.5,8-12.1,10.9"/>
</g>
<g id="Layer_2">
	<rect x="-0.6" y="-1" class="st0" width="97" height="93.2"/>
</g>
<g id="Layer_1">
	<path class="st2" d="M45.3,29.6h2.9l0.2,14c0.1,5.6-2.8,7.3-6.7,7.3c-1,0-2.1-0.1-3.1-0.5l0.4-2.2c0.8,0.3,1.6,0.4,2.4,0.4
		c2.6,0,4.1-1.1,4-5.2L45.3,29.6z"/>
	<path class="st2" d="M45.6,39.4c1.6-0.3,3.3-0.4,4.9-0.4c2.7,0,4.4,0.5,5.8,1.5c1.2,0.8,1.8,2.2,1.7,3.6c-0.1,2.1-1.5,3.9-3.5,4.5
		v0.1c2.5,0.5,4.3,2.6,4.3,5.1c0,1.6-0.6,3.1-1.8,4.1c-1.5,1.3-3.8,1.9-7.2,1.9c-1.4,0-2.8-0.1-4.2-0.2L45.6,39.4z M48.3,47.8h2.5
		c2.9,0,4.5-1.5,4.5-3.4c0-2.4-1.9-3.3-4.6-3.3c-0.8,0-1.6,0-2.4,0.2V47.8z M48.3,57.6c0.7,0.1,1.5,0.1,2.3,0.1c2.8,0,5.4-1,5.4-4
		c0-2.8-2.5-4-5.4-4h-2.3L48.3,57.6z"/>
	<path class="st2" d="M7.9,44.8c0-1.3-0.5-1.7-1.4-1.7c-0.3,0-0.6,0-0.8,0.1l-0.1-0.7c0.4-0.1,0.7-0.2,1.1-0.2
		c1.1-0.2,2.2,0.6,2.3,1.8c0,0.2,0,0.4,0,0.6l-0.1,4.5h-1L7.9,44.8z"/>
	<path class="st2" d="M8,39.5c0.5-0.1,1-0.1,1.5-0.1c0.9-0.1,1.8,0.1,2.5,0.6c0.4,0.3,0.6,0.8,0.6,1.3c0,0.8-0.7,1.5-1.5,1.7l0,0
		c0.7,0.2,1.2,0.8,1.2,1.5c0,0.5-0.2,0.9-0.6,1.2c-0.6,0.4-1.3,0.5-2,0.5c-0.6,0-1.1,0-1.7-0.1L8,39.5z M8.9,45.5
		c0.3,0,0.6,0.1,0.8,0.1c1,0,1.6-0.3,1.6-1.1c0-0.8-0.6-1.1-1.6-1.1H8.9V45.5z M8.9,42.7h0.8c1,0,1.9-0.4,1.9-1.3s-0.9-1.3-1.9-1.3
		c-0.3,0-0.5,0-0.8,0L8.9,42.7z"/>
	<path class="st2" d="M89.3,49.3h-1l-0.1-4.5c-0.2-1.1,0.6-2.2,1.7-2.4c0.2,0,0.4,0,0.6,0c0.4,0,0.7,0.1,1.1,0.2l-0.1,0.7
		c-0.3-0.1-0.6-0.1-0.9-0.1c-0.9,0-1.4,0.4-1.4,1.7L89.3,49.3z"/>
	<path class="st2" d="M89.2,46.1c-0.6,0.1-1.1,0.1-1.7,0.1c-0.7,0.1-1.4-0.1-2-0.5c-0.4-0.3-0.6-0.7-0.6-1.2c0-0.7,0.5-1.3,1.2-1.5
		l0,0c-0.8-0.1-1.5-0.8-1.5-1.7c0-0.5,0.2-1,0.6-1.3c0.7-0.5,1.6-0.7,2.5-0.6c0.5,0,1,0,1.5,0.1L89.2,46.1z M88.2,43.4h-0.9
		c-1,0-1.6,0.5-1.6,1.1c0,0.6,0.6,1.1,1.6,1.1c0.3,0,0.6,0,0.8-0.1V43.4z M88.2,40.2c-0.3,0-0.5,0-0.8,0c-1,0-1.9,0.3-1.9,1.3
		s0.9,1.3,1.9,1.3h0.8L88.2,40.2z"/>
	<ellipse class="st3" cx="48.3" cy="45.7" rx="45.3" ry="43.4"/>
	<path class="st2" d="M26.8,17.4c0.6,2.2,1.7,2.3,2.2,2c1.5-0.7,1.2-3.2,1.2-5.6c0.1-2,0.3-4,0.8-5.9c0-0.2,0.2-0.3,0.4-0.2
		c0,0,0.1,0,0.1,0c0.4,0.2,0.8,0.7,0.7,1.7c-0.1,1.3-0.5,4.8-0.6,6.4c-0.2,2.3-1.1,3.3-2.4,4c-0.9,0.6-2.2,0.4-2.8-0.5
		c-0.1-0.1-0.1-0.2-0.2-0.3c-0.3-0.6-0.2-1.2,0.2-1.7C26.6,17.2,26.8,17.1,26.8,17.4z"/>
	<path class="st2" d="M37.8,9.1c0.1-0.2,0.3-0.3,0.4-0.2c0.5,0.4,0.7,1,0.4,1.6c-0.2,0.7-0.8,2.1-1,3c-0.2,0.9,0.1,1.5,0.6,1.3
		c0.5-0.2,1.2-1.5,1.6-2.6c0-0.2,0.2-0.2,0.3-0.1c0.2,0.3,0.2,0.6,0.1,1c-0.3,1-1,1.8-1.9,2.2c-0.9,0.2-1.5,0-1.8-0.7
		c-0.2,0.8-0.8,1.5-1.5,1.9c-1.4,0.6-2.7-0.8-2.1-3.1s1.9-3.4,2.9-3.7s1.4,0.1,1.5,0.6C37.5,9.8,37.6,9.4,37.8,9.1z M36.5,10.1
		c-0.6,0.2-1.6,1.6-2,3.2c-0.4,1.6,0,2.8,0.7,2.6c0.6-0.3,1.1-1.5,1.5-3C37.1,10.9,37,10,36.5,10.1L36.5,10.1z"/>
	<path class="st2" d="M41.9,8.9c0-0.5,0.1-0.9,0.5-1.2c0.4-0.4,0.9-0.5,1.1-0.4s0.1,0.3-0.1,0.7c-0.1,0.1-0.1,0.2-0.2,0.3
		c0.1,1.4,0.6,2.5,0.7,3.5c0.1,0.6-0.1,1.2-0.5,1.6c0.9-0.5,1.7-1.3,2.1-2.3c0-0.1,0.2-0.1,0.3-0.1c0,0,0.1,0.1,0.1,0.1
		c0.1,0.3,0,0.7-0.2,1c-0.6,1-1.6,1.8-2.8,2c-0.9,0.3-2,0.1-2.7-0.6c-0.6-0.5-0.8-1.4-0.3-2.1c0.2-0.2,0.3-0.2,0.4,0.1
		c0.1,0.2,0.1,0.2,0.1,0.3C40.8,10.8,41.4,9.7,41.9,8.9z M40.6,12.6c0.5,0.8,1.1,1.3,1.6,1c0.7-0.3,0.1-2.6-0.2-3.7
		C41.6,10.7,41.1,11.6,40.6,12.6z"/>
	<path class="st2" d="M50.9,7.6c0.5,0.1,0.9,0.6,0.8,1.1c0,0.2-0.1,0.3-0.2,0.4c0.9-0.6,2-1,3.1-1c0.7,0.1,0.7,1,0.2,1.7
		s-1.5,1.4-2.1,2.1c-0.5,0.7-0.4,1.5,0.2,1.5c0.6,0.1,1.6-0.7,2.5-1.6c0.1-0.1,0.2-0.1,0.3,0c0,0,0,0,0,0c0,0.3-0.1,0.6-0.4,0.9
		c-0.7,0.8-1.8,1.2-2.8,1.1c-1.4-0.2-1.9-1.2-1.1-2.4s2.7-2.6,2.4-2.7c-0.3-0.1-0.9,0-2.2,0.8c-1.4,1-2.6,2.3-3.3,3.9
		c-0.1,0.2-0.2,0.2-0.4,0.1c-0.3-0.2-0.6-0.8-0.1-1.9c0.6-1.2,2.7-3.2,2.3-3.3c-0.9,0.2-1.8,0.6-2.4,1.3c-1.1,1.1-1.9,2.4-2.4,3.8
		c0,0.1-0.1,0.2-0.3,0.1c-0.4-0.2-0.5-0.7-0.3-1.5c0.6-1.7,1.5-3.2,2.6-4.6c0.1-0.1,0.2-0.2,0.3-0.1c0,0,0.1,0,0.1,0.1
		c0.3,0.5,0.3,1.1,0,1.6C48.7,8.3,49.7,7.8,50.9,7.6z"/>
	<path class="st2" d="M55.1,12c0.9-1.2,2-2.1,3.2-2.9c0.2-0.1,0.4-0.1,0.5,0c0.1,0.1,0.2,1-0.5,1.5c-0.8,0.6-1.5,1.2-2.2,1.9
		c-0.6,0.7-0.7,1.3-0.2,1.4c0.7,0.1,1.9-0.5,2.8-1.3c0.1-0.1,0.2,0,0.3,0.1s-0.1,0.5-0.4,0.8c-0.8,0.7-1.8,1-2.9,0.8
		C54.5,14.1,54.4,13.1,55.1,12z M60.3,9.4c-0.4,0.1-0.9-0.1-1-0.5c-0.2-0.4,0-0.8,0.4-1c0,0,0.1,0,0.1,0c0.5-0.1,0.9,0.2,1,0.7
		C60.8,8.9,60.6,9.3,60.3,9.4L60.3,9.4z"/>
	<path class="st2" d="M65.5,11.5c0.5,0.2,0.7,0.8,0.4,1.3c-0.1,0.2-0.3,0.4-0.5,0.5c-0.9,0.4-1.9,0.9-2.8,1.5
		c-0.8,0.6-1,1.3-0.5,1.5c0.6,0.2,1.9-0.2,3-0.7c0.2-0.1,0.3,0,0.3,0.1s-0.2,0.5-0.6,0.7c-0.9,0.5-2.1,0.6-3.1,0.2
		C60.6,16,60.6,15,61.6,14c1-1,3.4-1.8,3.2-2c-1-0.2-2-0.1-3,0.2c-1.5,0.6-2.8,1.5-3.8,2.6c-0.1,0.1-0.2,0.1-0.3,0
		c-0.2-0.4-0.2-0.9,0.3-1.5c1.3-1.3,2.8-2.3,4.4-3.1c0.1-0.1,0.3-0.1,0.3,0.1c0,0,0,0.1,0,0.1c0.1,0.5-0.1,1-0.5,1.3
		C63.3,11.3,65,11.2,65.5,11.5z"/>
	<path class="st2" d="M66,18.4c1.2,0.8,2.9,0.7,4.2,0.5c0.2,0,0.3,0.1,0.2,0.2c-0.2,0.3-0.5,0.5-0.9,0.5c-1.3,0.2-2.7-0.1-3.8-0.8
		c-1.8-1.2-1.6-3.1,0.5-4.1c2.1-1,4.4-0.4,4.9,0.5c0.2,0.4,0.4,0.9,0.5,1.3c0,0.5-0.7,1.1-1.8,1.2c-1.3,0.2-2.6-0.4-3.1-1.7
		C65.4,16.8,65.3,17.8,66,18.4z M69.4,16.4c0.9-0.1,1.8-0.5,1.6-0.7c-0.2-0.5-2.1-0.7-3.7,0L67,15.8C67.6,16.7,68.6,16.6,69.4,16.4
		L69.4,16.4z"/>
	<path class="st2" d="M34.7,74.5c-0.1-0.2,0-0.2,0.2-0.2c1.6,0,3.7-0.7,5.3-0.8c1.2,0,2.3,0.2,2.7,1.3c0.3,1-0.1,2.1-1,2.7
		c-1.1,0.8-2.4,1.3-3.8,1.5c0.4,0.2,0.8,0.5,1.1,0.8c0.5,0.5,0.4,1.5-0.7,2c-1.3,0.5-2.7,0.6-4,0.2c-0.6-0.1-1.2-0.4-1.7-0.8
		c-0.4-0.3-0.7-0.6-1-1c-0.3-0.4-0.5-0.6,0-1.2c1.3-1.4,2.8-2.7,4.4-3.9C35.7,75.1,35.1,74.9,34.7,74.5z M35.7,79
		c-0.5,0-0.9-0.2-1.4-0.4c-0.6,0.5-1.1,1-1.5,1.5c-0.2,0.3,0,0.6,0.6,0.8c1.4,0.4,2.9,0.4,4.3-0.2c0.9-0.5,0.9-1.2-1.1-1.6
		C36.3,79,36,79,35.7,79L35.7,79z M42,74.9c-0.4-0.8-2.8-0.2-4.4,0.1c0,0.3-0.2,0.8-0.8,1.4C36.3,77,35.7,77.5,35,78
		C39.4,78.2,42.5,76,42,74.9z"/>
	<path class="st2" d="M40.8,81.4c1-1.3,2-2.6,3.3-3.7c0.2-0.2,0.4-0.2,0.6-0.1c0.3,0.3,0.5,1-0.1,1.8s-1.6,1.8-2.2,2.5
		c-0.5,0.8-0.6,1.5,0.2,1.6c1.1,0.1,2.5-0.9,3.3-2c0.1-0.1,0.2-0.1,0.3-0.1c0,0,0.1,0,0.1,0.1c0.2,0.3,0.1,0.6-0.2,1
		c-0.9,1.1-2.4,1.6-3.8,1.4C40.4,83.7,40,82.6,40.8,81.4z M46.3,77.4c-0.5,0.2-1,0.1-1.3-0.3c-0.3-0.3-0.3-0.9,0.1-1.2
		c0,0,0.1,0,0.1-0.1c0.5-0.2,1.1-0.1,1.4,0.4C46.8,76.7,46.7,77.2,46.3,77.4L46.3,77.4z"/>
	<path class="st2" d="M47.3,77c-0.2-0.2,0-0.3,0.3-0.3c0.5,0,1.2,0,1.9,0c0.7-0.9,1.4-1.7,1.7-2.1c0.2-0.2,0.4-0.2,0.6,0
		c0.3,0.5,0.3,1-0.3,2c1.3-0.1,2.5-0.2,3.4-0.2c0.5-0.7,1-1.3,1.6-1.9c0.2-0.2,0.4-0.2,0.6,0c0.3,0.4,0.3,1-0.2,1.8
		c0.5-0.1,1.1,0.1,1.5,0.4c0.2,0.2,0.1,0.3-0.3,0.3c-0.3,0-1,0.1-1.8,0.1c-0.8,1.2-2.2,2.9-3.1,4.4c-0.8,1.3-0.4,2.3,0.6,2.2
		c1-0.1,2.4-1.5,3.2-2.8c0.1-0.2,0.4-0.3,0.5-0.1c0.1,0.2,0,0.5-0.2,1c-0.9,1.3-2.3,2.2-3.8,2.4c-0.9,0.2-1.9-0.3-2.2-1.2
		c-0.9,0.9-2.1,1.5-3.4,1.5c-1.7-0.1-2.9-1.4-1.7-3.3c0.5-0.8,1.6-2.2,2.6-3.5C48.3,77.6,47.8,77.4,47.3,77z M50.9,77.5
		c-0.9,1.2-2.2,2.7-3.1,4.1c-0.8,1.2-0.6,2.3,0.5,2.3c1.1,0,2.6-1.3,3.4-2.6c0.5-1,1.7-2.6,2.7-4.1C53.1,77.4,51.9,77.5,50.9,77.5
		L50.9,77.5z"/>
	<path class="st2" d="M57.7,83.5c-1.7,0.3-1.8-1-1.4-2.1c0.8-1.6,1.8-3.1,3-4.4c0.2-0.2,0.4-0.2,0.6-0.1c0.5,0.4,0.5,1.1-0.3,2.1
		c-0.6,0.8-1.2,1.6-1.7,2.6c-0.4,0.8-0.3,1.4,0.2,1.3c1-0.1,2.1-1.5,3.2-3c0.8-1.2,1.6-2.3,2.6-3.4c0.2-0.2,0.4-0.2,0.5-0.2
		c0.3,0.2,0.5,0.7,0,1.4c-0.5,0.7-1.5,1.9-1.9,2.8c-0.5,0.8-0.4,1.5,0.4,1.2c1.1-0.7,2-1.6,2.6-2.7c0.1-0.1,0.3-0.2,0.4-0.1
		c0.1,0.1,0.1,0.4-0.2,0.8c-0.7,1.1-1.8,2-3,2.6c-1.4,0.5-2,0.1-1.9-0.8C60.1,82.4,59,83.2,57.7,83.5z"/>
	<path class="st3" d="M22.4,19.3c-2.2,1.6-4.3,3.4-6,5.6c-2.8,3.4-4.9,7.3-6,11.5"/>
	<path class="st3" d="M73.3,19.3c2.2,1.6,4.3,3.4,6,5.6c2.8,3.4,4.9,7.3,6,11.5"/>
	<path class="st3" d="M8.7,52.6c1.5,5.3,4,10.3,7.4,14.6c3.2,4.1,7.2,7.7,11.6,10.4"/>
	<path class="st3" d="M88.2,52.6c-1.5,5.3-4,10.3-7.4,14.6c-3.2,4.1-7.2,7.7-11.6,10.4"/>
</g>
</svg>
